<svg width="1440" height="670" viewBox="0 0 1440 670" fill="none" xmlns="http://www.w3.org/2000/svg">
<path fill-rule="evenodd" clip-rule="evenodd" d="M1390 438.505L1385.93 415.398L1366.02 418.909L1362.51 399L1339.4 403.075L1342.91 422.983L1323 426.495L1327.08 449.602L1346.98 446.09L1350.49 466L1373.6 461.925L1370.09 442.016L1390 438.505Z" fill="#3C4488"/>
<path fill-rule="evenodd" clip-rule="evenodd" d="M69.8244 478L56 458.004L105.352 423L133 462.993L113.259 476.993L99.4356 456.998L69.8244 478Z" fill="#EEBCD8"/>
<path fill-rule="evenodd" clip-rule="evenodd" d="M1326.82 97L1313 77.0042L1362.35 42L1390 81.9928L1370.26 95.9926L1356.44 75.998L1326.82 97Z" fill="#EEBCD8"/>
<path fill-rule="evenodd" clip-rule="evenodd" d="M1144.95 228L1121.24 232.21L1127.11 265.748L1098 270.917L1107.47 325L1131.18 320.792L1125.89 290.584L1155 285.413L1144.95 228Z" fill="#E74011"/>
<g clip-path="url(#clip0_690_1477)">
<path d="M810.934 312C834.612 312 836.909 319.736 867.724 319.736C898.538 319.736 944.114 315.865 967.722 315.865C991.329 315.865 1020 315.064 1020 326.81C1020 338.556 973.942 339.67 959.528 339.67C945.113 339.67 920.454 350 881.504 350C842.554 350 819.158 340.065 796.837 340.065C774.516 340.065 724 335.614 724 328.505C724 321.396 742.562 317.589 763.831 317.589C785.101 317.589 801.002 312 810.934 312Z" fill="#8FCAAC"/>
<path d="M934.295 161.666C927.977 154.27 917.971 149.307 908.129 144.736C890.161 136.423 871.394 128.519 857.236 116.593C853.349 113.323 849.832 109.762 845.492 106.855C835.592 100.235 821.522 97.5147 808.762 99.7915C796.002 102.068 784.846 109.243 779.696 118.537C773.806 129.132 775.298 142.016 766.642 151.397C761.528 156.961 753.571 160.463 746.572 164.632C738.762 169.302 731.827 175.07 727.934 182.069C724.04 189.069 719.713 198.281 723.4 206.839C728.914 219.682 750.412 220.026 764.634 218.193C833.178 209.372 857.776 222.221 895.393 216.675C911.294 214.34 926.826 208.111 934.935 197.294C943.044 186.477 943.209 172.11 934.295 161.666Z" fill="#6CBE99"/>
<path d="M929.002 263.161L930.296 302.755C930.449 307.38 927.906 320.157 934.336 321C934.717 321.003 935.091 320.901 935.421 320.705C935.751 320.51 936.025 320.228 936.215 319.887L936.635 319.232C938.179 316.825 934.422 314.577 932.884 316.971C934.84 317.666 935.562 317.171 935.052 315.484C935.023 314.541 934.989 313.599 934.961 312.656C934.881 310.314 934.804 307.956 934.728 305.583L934.268 291.442C933.962 282.015 933.654 272.588 933.343 263.161C933.252 260.286 928.905 260.274 929.002 263.161Z" fill="#5A4745"/>
<path d="M809.929 311.078L814.257 290.784L811.042 263.461L799.708 234.82L784 205.436L788.718 202L804.915 233.181L811.368 207.637H814.938L809.33 239.561L814.938 250.454L821.025 239.07L827.553 231.103L825.492 208.058L828.689 206.911L831.386 224.038L844.135 205.664L850 206.683L837.472 226.83L818.706 258.807L820.739 276.807L821.421 300.624L818.706 315L809.929 311.078Z" fill="#4B160C"/>
<path d="M929.771 317L930.984 298.74V265.836L909 191H918.205L926.438 230.446L930.984 205.655L934.477 207.443L932.993 219.197L931.167 241.977L937.321 260.601L939.323 252.259L943.269 246.672L948.039 202.402L953.552 205.655L948.799 239.638L965.448 223.23L968.563 216.524L980 205.655L972.315 224.285L951.897 243.759L946.143 256.345L938.734 280.561L944.5 315.57L929.771 317Z" fill="#4B160C"/>
<path d="M762 319L765.345 313.435L772.988 311.117L784.135 296L790.642 300.344L794.034 304.58L800.635 297.466L809.798 298.544L816.64 310.604L823 319H762Z" fill="#6CBE99"/>
<path d="M876 322H935L925.301 302.754L919.772 299.638L907.997 307.58L903.803 301.938L898.11 299L892.104 308.117L889.152 316.435L884.458 314.814L876 322Z" fill="#41725B"/>
<path d="M906.358 322L906 317.118L915.959 306.907L929.367 309.843L940.897 298.464L953.05 291L964.792 296.678L973.707 309.843L991.806 305.392L1003.47 311.441L1008 322H906.358Z" fill="#6CBE99"/>
<path d="M823.013 163.058C833.585 151.779 849.501 145.638 855.033 130.123C857.97 121.872 854.663 112.96 858.216 104.534C860.909 98.389 865.373 93.1769 871.043 89.5565C876.794 85.8017 883.412 83.5655 890.271 83.0584C899.856 82.3279 919.184 88.6741 919.566 89.8545C933.074 97.346 945.325 111.932 961.523 111.079C976.617 110.29 989.743 100.659 1004.88 99.6075C1018.93 98.6316 1030.63 106.591 1039.76 116.472C1049.96 127.517 1058.56 140.565 1060.68 155.66C1060.68 155.782 1060.68 155.893 1060.68 156.016C1060.74 156.208 1060.78 156.403 1060.8 156.6C1063.42 186.239 1039.85 210.233 1012.4 217.24C996.538 221.283 980.093 220.506 964.183 217.345C945.578 213.652 927.694 207.703 908.501 207.884C890.8 208.053 873.104 211.425 855.391 209.725C842.359 208.474 827.16 204.664 819.084 193.444C811.796 183.323 814.973 171.607 823.013 163.058Z" fill="#41725B"/>
<path d="M1165.74 241.426C1138.39 241.426 1105.15 243.526 1095.86 243.526C1086.58 243.526 1072 244.816 1072 249.384C1072 253.952 1088.33 254.422 1102.77 254.422C1117.21 254.422 1120.61 260.816 1131.13 260.816C1141.65 260.816 1148.09 255.261 1164.28 255.261C1180.47 255.261 1181.4 262 1198.71 262C1216.02 262 1236.78 254.815 1242.23 249.301C1248.57 242.877 1214.15 238 1200.58 238C1187.01 238 1172.08 241.426 1165.74 241.426Z" fill="#8FCAAC"/>
<path d="M1249.92 154.806C1249.87 154.677 1249.81 154.559 1249.76 154.454C1249.71 154.348 1249.72 154.348 1249.7 154.29C1245.89 145.654 1236.68 141.799 1228.56 138.397L1226.39 137.482C1221.68 135.493 1216.75 133.434 1212.63 130.33C1208.5 127.227 1205.96 122.92 1203.42 118.714C1202.88 117.811 1202.33 116.907 1201.78 116.015C1198.15 110.207 1194.61 106.629 1190.3 104.382C1185.38 101.818 1179.53 100.498 1171.33 100.093C1161.33 99.6005 1147.41 100.827 1137.93 109.48C1133.02 113.95 1130.75 120.04 1129.18 125.367C1126.94 132.994 1124.63 138.825 1120.02 144.351C1119.19 145.349 1118.26 146.411 1117.28 147.525C1110.25 155.522 1100.63 166.539 1107.19 177.099C1114.12 188.246 1130.71 186.193 1141.71 184.826L1168.33 181.552C1172.07 181.083 1175.61 180.637 1179.45 181.282C1183.09 181.9 1186.67 182.835 1190.15 184.075C1191.32 184.497 1192.5 184.931 1193.68 185.365C1200 187.712 1205.97 189.9 1212.8 190H1213.43C1220.6 189.989 1227.67 188.239 1234.01 184.902C1244.96 179.147 1254.24 166.645 1249.92 154.806Z" fill="#41725B"/>
<path d="M1160.29 180.394L1167.71 198.065L1170.77 211.024L1170.14 246.235L1175.62 248L1174.88 219.882L1174.9 209.235L1177.2 202.571L1185.14 192.412L1189 175.865L1186.56 174.618L1183.32 190.094L1172.55 202.994L1170.96 198.065L1171.81 174.618H1168.67L1166.69 189.912L1161.32 174.618L1156 172L1160.29 180.394Z" fill="#4B160C"/>
<path d="M1194.85 235.64L1206.42 232L1214.06 233.817L1220.54 237.567L1226 244H1191L1194.85 235.64Z" fill="#6CBE99"/>
<path d="M1148 247H1200L1193.29 224.442L1182.25 221L1170.21 230.489L1156.84 229.102L1150.85 235.37L1148 247Z" fill="#41725B"/>
<path d="M1186.69 193.121L1186 195L1187.88 195.684L1188.56 193.805L1186.69 193.121Z" fill="#2E2D2C"/>
<path d="M1186.5 200C1187.88 200 1189 198.881 1189 197.5C1189 196.119 1187.88 195 1186.5 195C1185.12 195 1184 196.119 1184 197.5C1184 198.881 1185.12 200 1186.5 200Z" fill="#EDDF99"/>
<path d="M1193.49 200.06L1193 202L1194.94 202.484L1195.43 200.544L1193.49 200.06Z" fill="#2E2D2C"/>
<path d="M1193.5 207C1194.88 207 1196 205.881 1196 204.5C1196 203.119 1194.88 202 1193.5 202C1192.12 202 1191 203.119 1191 204.5C1191 205.881 1192.12 207 1193.5 207Z" fill="#EEBCD8"/>
<path d="M1202.32 208.025L1202 210L1203.97 210.317L1204.29 208.343L1202.32 208.025Z" fill="#2E2D2C"/>
<path d="M1202 216C1203.66 216 1205 214.657 1205 213C1205 211.343 1203.66 210 1202 210C1200.34 210 1199 211.343 1199 213C1199 214.657 1200.34 216 1202 216Z" fill="#6CBE99"/>
<path d="M1213.45 217.052L1213 219L1214.95 219.453L1215.4 217.506L1213.45 217.052Z" fill="#2E2D2C"/>
<path d="M1213 224C1214.66 224 1216 222.657 1216 221C1216 219.343 1214.66 218 1213 218C1211.34 218 1210 219.343 1210 221C1210 222.657 1211.34 224 1213 224Z" fill="#E74011"/>
<path d="M1228.41 226.042L1228 228L1229.96 228.408L1230.37 226.45L1228.41 226.042Z" fill="#2E2D2C"/>
<path d="M1228.5 235C1230.43 235 1232 233.433 1232 231.5C1232 229.567 1230.43 228 1228.5 228C1226.57 228 1225 229.567 1225 231.5C1225 233.433 1226.57 235 1228.5 235Z" fill="#1EA7AC"/>
<path d="M1248.57 236.055L1248 239L1249.96 239.38L1250.54 236.435L1248.57 236.055Z" fill="#2E2D2C"/>
<path d="M1248.5 245C1250.43 245 1252 243.433 1252 241.5C1252 239.567 1250.43 238 1248.5 238C1246.57 238 1245 239.567 1245 241.5C1245 243.433 1246.57 245 1248.5 245Z" fill="#3C4488"/>
<path d="M1268.45 244.034L1268 247L1269.98 247.299L1270.43 244.333L1268.45 244.034Z" fill="#2E2D2C"/>
<path d="M1268 254C1270.21 254 1272 252.209 1272 250C1272 247.791 1270.21 246 1268 246C1265.79 246 1264 247.791 1264 250C1264 252.209 1265.79 254 1268 254Z" fill="#E74011"/>
<path d="M1294.2 251.007L1294 254L1296.99 254.201L1297.19 251.208L1294.2 251.007Z" fill="#2E2D2C"/>
<path d="M1295.5 263C1297.99 263 1300 260.985 1300 258.5C1300 256.015 1297.99 254 1295.5 254C1293.01 254 1291 256.015 1291 258.5C1291 260.985 1293.01 263 1295.5 263Z" fill="#EDDF99"/>
<path d="M1322.95 254.48L1320 255L1320.7 258.939L1323.65 258.419L1322.95 254.48Z" fill="#2E2D2C"/>
<path d="M1322.5 268C1325.54 268 1328 265.538 1328 262.5C1328 259.462 1325.54 257 1322.5 257C1319.46 257 1317 259.462 1317 262.5C1317 265.538 1319.46 268 1322.5 268Z" fill="#EEBCD8"/>
<path d="M1332.95 257C1293.26 256.249 1254.59 244.292 1221.42 222.515C1211.2 215.818 1201.6 208.21 1192.75 199.786C1189.3 196.542 1186.04 193.096 1183 189.465L1184.84 188C1184.97 188.164 1198.07 204.381 1222.8 220.627C1255.58 242.131 1293.78 253.935 1333 254.673L1332.95 257Z" fill="#2E2D2C"/>
<path d="M1434.32 351C1463.65 351 1476.43 365.647 1513.79 365.647C1551.15 365.647 1589 377.206 1589 386.977C1589 396.747 1521.63 400 1495.35 400C1469.06 400 1437.56 386.977 1406.62 386.977C1375.68 386.977 1334.87 388.246 1310.31 388.246C1285.75 388.246 1283 382.702 1283 377.619C1283 372.536 1291.4 368.067 1318.67 368.067C1345.93 368.067 1368.27 365.67 1388.92 365.67C1409.57 365.67 1420.46 351 1434.32 351Z" fill="#A2D2B8"/>
<path d="M1425.64 370L1430.98 314.543L1438.15 280.026L1455 241.296L1451.03 239L1435.98 268.259L1426.16 301.766L1424.3 310.64L1414.52 299.779L1420.85 245.018H1416.25L1410.75 291.086L1402.6 280.873L1405.78 246.227H1401.19L1397.1 272.121L1379.25 250.983L1376 254.202L1421.04 319.241L1420.64 339.66L1414.69 369.854L1425.64 370Z" fill="#4B160C"/>
<path d="M1315.44 222.068C1315.5 221.909 1315.57 221.754 1315.65 221.603C1315.65 221.532 1315.7 221.462 1315.72 221.385C1320.78 209.862 1333.01 204.722 1343.81 200.21L1346.7 198.993C1353 196.334 1359.5 193.587 1364.98 189.446C1370.37 185.376 1373.85 179.57 1377.21 173.959C1377.93 172.753 1378.66 171.547 1379.4 170.353C1384.22 162.612 1388.93 157.824 1394.67 154.842C1401.21 151.425 1408.99 149.66 1419.87 149.125C1433.16 148.466 1451.65 150.101 1464.25 161.618C1470.77 167.577 1473.79 175.676 1475.88 182.793C1478.86 192.958 1481.93 200.739 1488.05 208.086C1489.15 209.421 1490.4 210.839 1491.69 212.327C1501.02 223.038 1513.81 237.708 1505.1 251.795C1495.88 266.688 1473.82 263.93 1459.23 262.1L1423.87 257.736C1418.89 257.112 1414.19 256.518 1409.09 257.377C1404.25 258.2 1399.49 259.446 1394.88 261.1C1393.29 261.689 1391.72 262.247 1390.18 262.824C1381.78 265.935 1373.85 268.871 1364.78 269H1363.94C1354.4 268.99 1345.01 266.658 1336.57 262.206C1322.02 254.566 1309.7 237.89 1315.44 222.068Z" fill="#41725B"/>
<path d="M1585.48 210.223C1577.36 181.628 1560.85 151.748 1532.33 139.543C1508.77 129.463 1477.88 132.498 1461.53 153.879C1450.4 168.396 1448.18 187.088 1440.45 203.261C1435.85 212.871 1429.63 222.533 1418.65 224.688C1409.48 226.49 1400.87 227.112 1392.45 231.48C1392.28 231.548 1392.11 231.635 1391.95 231.738C1391.78 231.833 1391.61 231.947 1391.46 232.079C1371.67 245.387 1370.14 275.32 1391.18 288.646C1402.58 295.861 1416.91 294.875 1429.3 291.059C1442.97 286.85 1453.35 276.383 1467.08 272.661L1476.37 271.516C1476.49 271.496 1476.61 271.468 1476.73 271.434C1504.93 273.688 1529.16 311.94 1559.71 294.423C1573.18 286.686 1590 263.897 1590 236.893C1590.01 227.834 1587.93 218.835 1585.48 210.223Z" fill="#6CBE99"/>
<path d="M1528 373L1511.61 357.97L1497.15 354.683L1492.04 363.481L1483.7 353.312L1469.94 346L1459.97 349.705L1451.8 360.932L1443.02 360.084L1437.82 363.58L1434 373H1528Z" fill="#41725B"/>
<path d="M1301 345.308L1297.35 338.885L1290.35 333.737L1292.75 339.622L1289.23 334.42L1285.05 333L1287.66 338.039L1283.53 333.755L1280.09 334.734L1277 337.012L1279.78 340.662L1284.09 343.502L1288.16 342.74L1286.39 344.378L1290.19 344.958L1292.8 343.574L1290.34 346.571L1296.11 347L1301 345.308Z" fill="#5A9C7E"/>
<path d="M1310.55 357L1298.16 342.658L1289 339.56L1289.19 339L1298.5 342.151L1311 356.611L1310.55 357Z" fill="#42765F"/>
<path d="M1313.2 339L1301.13 325.488L1289 316.479L1299.93 315L1303.13 319.573L1303.17 315.398L1307.13 318.362L1308.47 323.273L1309.07 317.56L1311.87 322.062V327.704L1313.47 325.287L1315 330.531L1313.2 339Z" fill="#5A9C7E"/>
<path d="M1320.12 330.152L1316.25 318.214L1315 309.109L1319.2 313.003L1316.25 305.88L1317.89 299.742L1320.45 305.682L1320.65 300.004L1325.89 294L1329 307.209L1327.14 311.68L1328.78 311.021L1325.5 319.666L1327.73 319.205L1327.6 323.099L1321.76 332L1320.12 330.152Z" fill="#5A9C7E"/>
<path d="M1317.42 356L1310.67 329.829L1299 318.414L1299.43 318L1311.22 329.532L1311.24 329.614L1318 355.86L1317.42 356Z" fill="#42765F"/>
<path d="M1324.38 310.455L1318 355L1318.99 355.141L1325.37 310.596L1324.38 310.455Z" fill="#42765F"/>
<path d="M1326.98 352L1334.58 342.19L1347.39 334.066L1349 329.242L1342.93 328L1333.63 331.727L1332.22 336.499L1331.48 331.923L1328.18 334.014V342.317L1326.83 336.955L1324 345.523L1326.98 352Z" fill="#6CBE99"/>
<path d="M1323.55 361L1323 360.775L1332.09 340.35L1341.63 333L1342 333.45L1332.59 340.713L1323.55 361Z" fill="#42765F"/>
<path d="M1299 372L1305.99 355.944L1316.79 350.655L1327.79 355.16L1331.19 358.88L1337.6 348.7L1347.99 344L1359.19 347.916L1367.79 358.689L1375.8 358.101L1387.4 368.084L1390 372H1299Z" fill="#5A9C7E"/>
<path d="M1401 376L1397.39 370.14L1389.28 368.997L1381.91 371.2L1376.04 364.479L1362.35 362L1356.5 369.853L1347.51 367.386L1342 376H1401Z" fill="#41725B"/>
<path d="M943.666 229.056L943 233L944.972 233.332L945.638 229.388L943.666 229.056Z" fill="#2E2D2C"/>
<path d="M943 244C946.314 244 949 241.314 949 238C949 234.686 946.314 232 943 232C939.686 232 937 234.686 937 238C937 241.314 939.686 244 943 244Z" fill="#3C4488"/>
<path d="M974.521 230.034L974 234L975.983 234.26L976.505 230.294L974.521 230.034Z" fill="#2E2D2C"/>
<path d="M973.5 243C976.538 243 979 240.538 979 237.5C979 234.462 976.538 232 973.5 232C970.462 232 968 234.462 968 237.5C968 240.538 970.462 243 973.5 243Z" fill="#EDDF99"/>
<path d="M1004.81 228.147L1003 229L1004.71 232.616L1006.52 231.762L1004.81 228.147Z" fill="#2E2D2C"/>
<path d="M1007.5 242C1010.54 242 1013 239.538 1013 236.5C1013 233.462 1010.54 231 1007.5 231C1004.46 231 1002 233.462 1002 236.5C1002 239.538 1004.46 242 1007.5 242Z" fill="#1EA7AC"/>
<path d="M1036.09 227.001L1036 230L1038 230.061L1038.09 227.062L1036.09 227.001Z" fill="#2E2D2C"/>
<path d="M1037 239C1039.76 239 1042 236.761 1042 234C1042 231.239 1039.76 229 1037 229C1034.24 229 1032 231.239 1032 234C1032 236.761 1034.24 239 1037 239Z" fill="#E74011"/>
<path d="M1062.9 222.137L1062 225L1063.91 225.595L1064.8 222.732L1062.9 222.137Z" fill="#2E2D2C"/>
<path d="M1061.5 233C1063.99 233 1066 230.985 1066 228.5C1066 226.015 1063.99 224 1061.5 224C1059.01 224 1057 226.015 1057 228.5C1057 230.985 1059.01 233 1061.5 233Z" fill="#6CBE99"/>
<path d="M1087.99 216.801L1086 217L1086.3 219.985L1088.29 219.786L1087.99 216.801Z" fill="#2E2D2C"/>
<path d="M1085.5 229C1087.99 229 1090 226.985 1090 224.5C1090 222.015 1087.99 220 1085.5 220C1083.01 220 1081 222.015 1081 224.5C1081 226.985 1083.01 229 1085.5 229Z" fill="#EEBCD8"/>
<path d="M1104.97 211.651L1103 212L1103.52 214.954L1105.49 214.605L1104.97 211.651Z" fill="#2E2D2C"/>
<path d="M1105 222C1107.21 222 1109 220.209 1109 218C1109 215.791 1107.21 214 1105 214C1102.79 214 1101 215.791 1101 218C1101 220.209 1102.79 222 1105 222Z" fill="#E74011"/>
<path d="M1120.25 205.011L1120 208L1121.99 208.167L1122.24 205.177L1120.25 205.011Z" fill="#2E2D2C"/>
<path d="M1122 216C1124.21 216 1126 214.209 1126 212C1126 209.791 1124.21 208 1122 208C1119.79 208 1118 209.791 1118 212C1118 214.209 1119.79 216 1122 216Z" fill="#3C4488"/>
<path d="M1134.87 200.281L1133 201L1133.72 202.866L1135.59 202.147L1134.87 200.281Z" fill="#2E2D2C"/>
<path d="M1136.5 209C1138.43 209 1140 207.433 1140 205.5C1140 203.567 1138.43 202 1136.5 202C1134.57 202 1133 203.567 1133 205.5C1133 207.433 1134.57 209 1136.5 209Z" fill="#EDDF99"/>
<path d="M1146.77 193.071L1145 194L1145.93 195.77L1147.7 194.841L1146.77 193.071Z" fill="#2E2D2C"/>
<path d="M1148.5 202C1150.43 202 1152 200.433 1152 198.5C1152 196.567 1150.43 195 1148.5 195C1146.57 195 1145 196.567 1145 198.5C1145 200.433 1146.57 202 1148.5 202Z" fill="#1EA7AC"/>
<path d="M1156.73 186.001L1155 187L1156 188.731L1157.73 187.732L1156.73 186.001Z" fill="#2E2D2C"/>
<path d="M1159 194C1160.66 194 1162 192.657 1162 191C1162 189.343 1160.66 188 1159 188C1157.34 188 1156 189.343 1156 191C1156 192.657 1157.34 194 1159 194Z" fill="#EEBCD8"/>
<path d="M962.936 231C940.862 231 926.253 229.978 926 229.96L926.17 227.609C957.434 229.36 988.783 228.908 1019.98 226.258C1049.51 223.684 1075.72 219.106 1097.9 212.654C1125.49 204.61 1146.88 193.627 1161.4 180L1163 181.716C1148.21 195.601 1126.52 206.766 1098.54 214.917C1076.22 221.416 1049.84 226.017 1020.15 228.602C998.914 230.448 978.961 231 962.936 231Z" fill="#2E2D2C"/>
<g clip-path="url(#clip1_690_1477)">
<path d="M1166.48 196.052C1153.71 197.808 1140.79 198.964 1128 200.519V133C1140.89 135.381 1153.61 138.596 1166.48 141.067V196.052Z" fill="#9D9D9C"/>
<path d="M1153.12 162.981C1149.89 162.912 1146.65 162.809 1143.4 162.719C1140.62 164.784 1137.84 166.849 1134.99 168.776C1133.85 172.114 1132.83 175.473 1131.85 178.859C1132.91 182.415 1134 185.965 1135.1 189.507C1137.88 191.379 1140.72 193.155 1143.6 194.869C1146.88 194.497 1150.16 194.098 1153.45 193.774C1155.72 191.661 1157.95 189.507 1160.23 187.401C1161.08 184.239 1161.96 181.087 1162.88 177.944C1161.95 174.888 1161.03 171.832 1160.1 168.776C1157.75 166.904 1155.42 164.956 1153.12 162.981Z" fill="#575756"/>
<path d="M1157.94 149.629C1156.87 149.491 1156.34 149.415 1155.24 149.257L1152.99 150.895C1152.64 152.134 1152.46 152.76 1152.11 154.027C1152.46 155.403 1152.63 156.036 1152.97 157.344C1153.88 158.204 1154.33 158.617 1155.2 159.409L1157.9 159.519C1158.77 158.831 1159.2 158.452 1160.08 157.757L1160.92 154.825C1160.59 153.6 1160.42 152.987 1160.09 151.748C1159.22 150.929 1158.79 150.503 1157.94 149.629Z" fill="#2E2D2C"/>
<path d="M1132.64 144.281V151.102C1133.67 153.029 1134.72 154.942 1135.81 156.842C1137.52 157.631 1139.25 158.393 1140.99 159.127C1142.69 158.59 1144.38 158.067 1146.08 157.544C1147.08 156.009 1148.07 154.467 1149.12 152.967C1149.12 150.998 1149.12 149.03 1149.12 147.068C1148.08 145.316 1147.02 143.57 1145.95 141.831C1144.24 140.913 1142.53 139.977 1140.81 139.022C1139.11 139.236 1137.42 139.47 1135.73 139.711C1134.63 141.204 1133.61 142.725 1132.64 144.281Z" fill="#575756"/>
<path d="M1134.15 145.141C1134.15 146.972 1134.15 148.796 1134.15 150.647C1135.01 152.21 1135.87 153.772 1136.75 155.321C1138.14 156.009 1139.53 156.628 1140.97 157.255C1142.64 156.739 1143.47 156.491 1145.13 156.002C1145.95 154.74 1146.78 153.485 1147.61 152.237L1147.56 147.344L1144.98 143.035C1143.59 142.278 1142.2 141.514 1140.81 140.743C1139.15 140.977 1138.32 141.101 1136.65 141.397C1135.8 142.636 1134.96 143.875 1134.15 145.141Z" fill="#DADADA"/>
<path d="M1137.84 147.185C1137.84 148.135 1137.84 148.617 1137.84 149.58C1138.31 150.42 1138.53 150.84 1139.02 151.645C1139.78 152.031 1140.16 152.217 1140.92 152.588L1142.79 152.086C1143.24 151.397 1143.49 151.046 1143.92 150.372C1143.92 149.463 1143.92 148.995 1143.92 148.101L1142.74 146.098L1140.86 145.072C1140.11 145.217 1139.74 145.299 1138.99 145.458C1138.53 146.146 1138.31 146.49 1137.84 147.185Z" fill="#9D9D9C"/>
<path d="M1152.58 164.805L1144.04 164.66C1141.61 166.471 1139.11 168.143 1136.6 169.829C1135.58 172.789 1134.68 175.783 1133.83 178.777C1134.78 181.888 1135.74 184.971 1136.73 188.11C1139.2 189.782 1141.71 191.386 1144.25 192.928C1147.15 192.611 1150.05 192.294 1152.96 192.005C1154.97 190.126 1156.97 188.227 1158.99 186.348C1159.72 183.54 1160.48 180.736 1161.27 177.937L1158.85 169.781C1156.73 168.161 1154.64 166.503 1152.58 164.805Z" fill="#DADADA"/>
<path d="M1151.87 167.166H1144.85C1142.84 168.604 1140.76 169.919 1138.74 171.337C1137.9 173.794 1137.15 176.265 1136.4 178.742C1137.2 181.28 1138 183.817 1138.81 186.355C1140.85 187.731 1142.92 189.108 1145.01 190.443L1152.2 189.755C1153.88 188.199 1155.56 186.637 1157.24 185.068C1157.84 182.734 1158.44 180.401 1159.07 178.075C1158.41 175.817 1157.75 173.558 1157.07 171.295C1155.35 169.884 1153.61 168.529 1151.87 167.166Z" fill="#7C7C7B"/>
<path d="M1128 133L1114.64 140.86V193.334L1128 200.519" fill="#2E2D2C"/>
<path d="M1086.87 201.393C1097.19 202.811 1107.61 203.747 1117.96 205V150.468C1107.54 152.395 1097.27 154.983 1086.87 156.986V201.393Z" fill="#DADADA"/>
<path d="M1097.67 174.682C1100.28 174.627 1102.89 174.544 1105.5 174.475C1107.73 176.161 1109.97 177.806 1112.29 179.362C1113.21 182.06 1114.04 184.772 1114.83 187.511C1113.97 190.381 1113.1 193.251 1112.21 196.107C1109.96 197.622 1107.67 199.074 1105.34 200.45C1102.69 200.154 1100.04 199.831 1097.38 199.569C1095.55 197.863 1093.75 196.128 1091.9 194.421C1091.22 191.87 1090.51 189.323 1089.77 186.781C1090.52 184.308 1091.26 181.835 1092 179.362C1093.93 177.855 1095.81 176.278 1097.67 174.682Z" fill="#575756"/>
<path d="M1093.77 163.903L1095.95 163.601L1097.77 164.929C1098.05 165.927 1098.2 166.436 1098.46 167.462L1097.77 170.139C1097.07 170.827 1096.68 171.165 1095.97 171.819L1093.79 171.908C1093.09 171.33 1092.74 171.041 1092.03 170.483C1091.76 169.527 1091.62 169.052 1091.34 168.109C1091.61 167.125 1091.74 166.629 1092.03 165.631C1092.73 164.95 1093.08 164.605 1093.77 163.903Z" fill="#2E2D2C"/>
<path d="M1114.23 159.581V165.087C1113.39 166.65 1112.55 168.191 1111.67 169.726C1110.28 170.364 1108.89 170.979 1107.5 171.571C1106.11 171.135 1104.74 170.708 1103.39 170.291C1102.59 169.052 1101.79 167.806 1100.95 166.595V161.832C1101.79 160.414 1102.64 159.003 1103.5 157.599C1104.89 156.846 1106.28 156.092 1107.67 155.334C1109.06 155.507 1110.41 155.692 1111.77 155.906C1112.6 157.09 1113.42 158.328 1114.23 159.581Z" fill="#575756"/>
<path d="M1112.98 160.276V164.702C1112.29 165.968 1111.6 167.228 1110.9 168.48C1109.77 169.017 1108.64 169.538 1107.49 170.043C1106.14 169.623 1105.47 169.423 1104.14 169.031C1103.45 168.012 1102.81 166.966 1102.13 165.989C1102.13 164.681 1102.13 163.366 1102.17 162.059C1102.86 160.898 1103.56 159.737 1104.25 158.576L1107.63 156.725C1108.97 156.91 1109.64 157.014 1110.98 157.255C1111.66 158.239 1112.34 159.251 1112.98 160.276Z" fill="#DADADA"/>
<path d="M1110 161.907C1110 162.678 1110 163.064 1110 163.841C1109.61 164.53 1109.43 164.86 1109.04 165.528L1107.51 166.292L1106 165.879L1105.09 164.502C1105.09 163.766 1105.09 163.401 1105.09 162.671L1106.04 161.047L1107.56 160.221L1109.07 160.531C1109.44 161.088 1109.63 161.364 1110 161.907Z" fill="#9D9D9C"/>
<path d="M1098.1 176.154L1105 176.058C1106.95 177.517 1108.98 178.873 1111 180.236C1111.83 182.624 1112.56 185.054 1113.27 187.463C1112.5 189.975 1111.72 192.494 1110.93 195.034C1108.93 196.351 1106.9 197.645 1104.85 198.916C1102.51 198.661 1100.16 198.399 1097.81 198.165C1096.19 196.651 1094.57 195.123 1092.95 193.602C1092.36 191.308 1091.74 189.043 1091.11 186.809C1091.76 184.611 1092.41 182.415 1093.06 180.222C1094.78 178.88 1096.43 177.531 1098.1 176.154Z" fill="#DADADA"/>
<path d="M1098.68 178.068H1104.35C1105.96 179.231 1107.65 180.305 1109.28 181.44C1109.98 183.416 1110.57 185.419 1111.16 187.415C1110.51 189.466 1109.87 191.517 1109.22 193.568C1107.57 194.696 1105.91 195.798 1104.22 196.871L1098.4 196.321C1097.02 195.068 1095.7 193.802 1094.34 192.535C1093.86 190.649 1093.37 188.77 1092.86 186.892C1093.39 185.056 1093.93 183.221 1094.47 181.385C1095.86 180.263 1097.27 179.169 1098.68 178.068Z" fill="#7C7C7B"/>
<path d="M1117.96 150.468L1123.46 156.821V199.198L1117.96 205" fill="#575756"/>
<path d="M1189.47 165.277L1174.55 170.97L1176.08 174.901L1191 169.208L1189.47 165.277Z" fill="#2E2D2C"/>
<path d="M1187.98 177.862H1173.41V182.074H1187.98V177.862Z" fill="#2E2D2C"/>
<path d="M1176.31 158.892L1169.05 167.839L1172.37 170.479L1179.63 161.531L1176.31 158.892Z" fill="#2E2D2C"/>
<path d="M1067.5 179.924L1067 182.94L1078.45 184.79L1078.94 181.773L1067.5 179.924Z" fill="#2E2D2C"/>
<path d="M1080.59 186.233L1070.24 188.333L1070.86 191.326L1081.21 189.227L1080.59 186.233Z" fill="#2E2D2C"/>
<path d="M1075.89 173.449L1073.94 175.81L1080.43 181.096L1082.39 178.735L1075.89 173.449Z" fill="#2E2D2C"/>
</g>
</g>
<g clip-path="url(#clip2_690_1477)">
<g clip-path="url(#clip3_690_1477)">
<path d="M1204.66 363.978L1015.06 348.122C1015.06 348.122 993 322.281 993 280.59C993 238.899 1007.71 195 1145.65 195C1191.88 195 1215 203.223 1215 243.835C1215 277.454 1212.36 338.137 1211.45 358.02C1211.41 358.862 1211.2 359.687 1210.84 360.447C1210.47 361.207 1209.96 361.885 1209.32 362.441C1208.69 362.997 1207.95 363.42 1207.15 363.684C1206.35 363.948 1205.5 364.048 1204.66 363.978Z" fill="#CCB64B"/>
<path d="M1206.97 355.999C1207.14 356.006 1207.3 355.947 1207.42 355.834C1207.54 355.721 1207.61 355.564 1207.62 355.398C1207.63 355.232 1207.57 355.07 1207.46 354.948C1207.34 354.825 1207.19 354.753 1207.02 354.746L1016.7 340.504C1016.62 340.498 1016.54 340.508 1016.46 340.533C1016.38 340.559 1016.31 340.6 1016.25 340.654C1016.18 340.708 1016.13 340.773 1016.1 340.847C1016.06 340.921 1016.04 341.001 1016.03 341.083C1016.02 341.166 1016.03 341.248 1016.06 341.327C1016.09 341.405 1016.13 341.478 1016.18 341.54C1016.23 341.603 1016.3 341.654 1016.37 341.691C1016.45 341.728 1016.53 341.751 1016.61 341.757L1206.93 355.999H1206.97ZM1207.39 346.444C1207.47 346.447 1207.55 346.433 1207.63 346.405C1207.71 346.376 1207.78 346.332 1207.84 346.276C1207.96 346.162 1208.03 346.005 1208.04 345.839C1208.04 345.673 1207.98 345.511 1207.87 345.39C1207.76 345.268 1207.6 345.196 1207.43 345.191L1011.39 331.618C1011.23 331.607 1011.06 331.662 1010.94 331.771C1010.81 331.88 1010.74 332.035 1010.72 332.201C1010.71 332.367 1010.77 332.531 1010.88 332.657C1010.99 332.783 1011.14 332.86 1011.31 332.872L1207.35 346.444H1207.39ZM1207.8 336.876C1207.96 336.881 1208.12 336.819 1208.25 336.705C1208.37 336.591 1208.44 336.434 1208.44 336.268C1208.45 336.102 1208.39 335.94 1208.27 335.819C1208.16 335.698 1208 335.627 1207.83 335.622L1007.26 322.877C1007.18 322.872 1007.09 322.884 1007.02 322.911C1006.94 322.938 1006.87 322.98 1006.8 323.034C1006.74 323.089 1006.69 323.155 1006.66 323.23C1006.62 323.304 1006.6 323.384 1006.59 323.466C1006.59 323.549 1006.6 323.631 1006.63 323.709C1006.65 323.787 1006.7 323.859 1006.75 323.921C1006.81 323.982 1006.87 324.032 1006.95 324.069C1007.02 324.105 1007.1 324.126 1007.18 324.131L1207.76 336.876H1207.8ZM1208.19 327.307C1208.35 327.312 1208.51 327.251 1208.63 327.137C1208.76 327.023 1208.83 326.866 1208.83 326.7C1208.84 326.534 1208.77 326.372 1208.66 326.251C1208.55 326.13 1208.39 326.059 1208.22 326.054L1004.07 314.262C1003.9 314.252 1003.74 314.308 1003.61 314.419C1003.49 314.529 1003.41 314.684 1003.4 314.851C1003.39 315.017 1003.45 315.18 1003.56 315.305C1003.67 315.429 1003.83 315.505 1003.99 315.515L1208.12 327.307H1208.19ZM1208.56 317.733C1208.73 317.737 1208.89 317.675 1209.01 317.561C1209.13 317.446 1209.2 317.288 1209.2 317.122C1209.21 316.956 1209.15 316.795 1209.03 316.674C1208.92 316.554 1208.76 316.484 1208.59 316.48L1001.65 305.671C1001.57 305.667 1001.49 305.679 1001.41 305.707C1001.33 305.734 1001.26 305.777 1001.2 305.832C1001.14 305.888 1001.09 305.954 1001.06 306.029C1001.02 306.103 1001 306.184 1001 306.266C1000.99 306.349 1001 306.431 1001.03 306.508C1001.06 306.586 1001.1 306.657 1001.16 306.719C1001.21 306.78 1001.28 306.829 1001.35 306.865C1001.43 306.9 1001.51 306.92 1001.59 306.924L1208.53 317.733H1208.56ZM1208.91 308.165C1209.08 308.169 1209.24 308.107 1209.36 307.992C1209.48 307.878 1209.55 307.72 1209.56 307.554C1209.56 307.388 1209.5 307.227 1209.38 307.106C1209.27 306.986 1209.11 306.916 1208.94 306.912L999.981 297.174C999.898 297.17 999.816 297.182 999.738 297.21C999.661 297.238 999.589 297.28 999.528 297.336C999.467 297.391 999.418 297.458 999.382 297.532C999.347 297.607 999.327 297.687 999.323 297.77C999.318 297.852 999.331 297.934 999.358 298.012C999.386 298.089 999.429 298.161 999.484 298.222C999.539 298.283 999.606 298.333 999.681 298.368C999.755 298.403 999.836 298.423 999.918 298.427L1208.88 308.165H1208.91ZM1209.24 298.597C1209.41 298.597 1209.57 298.531 1209.69 298.413C1209.81 298.296 1209.87 298.136 1209.87 297.97C1209.87 297.804 1209.81 297.645 1209.69 297.527C1209.57 297.409 1209.41 297.343 1209.24 297.343L998.959 288.734C998.793 288.727 998.631 288.787 998.508 288.9C998.386 289.013 998.314 289.169 998.307 289.336C998.301 289.502 998.36 289.664 998.473 289.786C998.586 289.908 998.743 289.981 998.909 289.987L1209.22 298.597H1209.24ZM1209.55 289.022C1209.71 289.022 1209.87 288.956 1209.99 288.839C1210.11 288.721 1210.17 288.562 1210.17 288.396C1210.17 288.229 1210.11 288.07 1209.99 287.953C1209.87 287.835 1209.71 287.769 1209.55 287.769L998.627 280.325C998.461 280.325 998.301 280.391 998.184 280.509C998.066 280.626 998 280.785 998 280.952C998 281.118 998.066 281.277 998.184 281.395C998.301 281.512 998.461 281.578 998.627 281.578L1209.53 289.01L1209.55 289.022ZM1209.83 279.435C1209.99 279.435 1210.15 279.369 1210.27 279.252C1210.39 279.134 1210.45 278.975 1210.45 278.809C1210.45 278.642 1210.39 278.483 1210.27 278.366C1210.15 278.248 1209.99 278.182 1209.83 278.182L998.852 271.916C998.686 271.916 998.527 271.982 998.409 272.1C998.292 272.217 998.226 272.376 998.226 272.543C998.226 272.709 998.292 272.868 998.409 272.986C998.527 273.103 998.686 273.169 998.852 273.169L1209.83 279.435ZM1210.07 269.855C1210.23 269.855 1210.39 269.789 1210.51 269.671C1210.63 269.553 1210.69 269.394 1210.69 269.228C1210.69 269.062 1210.63 268.902 1210.51 268.785C1210.39 268.667 1210.23 268.601 1210.07 268.601L999.705 263.551C999.539 263.551 999.379 263.617 999.262 263.734C999.144 263.852 999.078 264.011 999.078 264.178C999.078 264.344 999.144 264.503 999.262 264.621C999.379 264.738 999.539 264.804 999.705 264.804L1210.07 269.855ZM1210.25 260.268C1210.41 260.268 1210.57 260.202 1210.69 260.084C1210.81 259.967 1210.87 259.807 1210.87 259.641C1210.87 259.475 1210.81 259.315 1210.69 259.198C1210.57 259.08 1210.41 259.014 1210.25 259.014L1001.46 255.18C1001.29 255.18 1001.13 255.246 1001.02 255.363C1000.9 255.481 1000.83 255.64 1000.83 255.806C1000.83 255.972 1000.9 256.132 1001.02 256.249C1001.13 256.367 1001.29 256.433 1001.46 256.433L1210.25 260.268ZM1210.37 250.687C1210.54 250.687 1210.7 250.621 1210.82 250.503C1210.93 250.386 1211 250.226 1211 250.06C1211 249.894 1210.93 249.735 1210.82 249.617C1210.7 249.5 1210.54 249.434 1210.37 249.434L1004.46 246.808V248.061L1210.37 250.674L1210.37 250.687ZM1210.33 241.1C1210.5 241.1 1210.65 241.034 1210.77 240.916C1210.89 240.799 1210.96 240.639 1210.96 240.473C1210.96 240.307 1210.89 240.148 1210.77 240.03C1210.65 239.913 1210.5 239.847 1210.33 239.847L1009.13 238.418C1008.96 238.418 1008.8 238.484 1008.68 238.602C1008.57 238.719 1008.5 238.878 1008.5 239.045C1008.5 239.211 1008.57 239.37 1008.68 239.488C1008.8 239.605 1008.96 239.671 1009.13 239.671L1210.33 241.1ZM1209.38 231.494C1209.54 231.494 1209.7 231.428 1209.82 231.311C1209.94 231.193 1210 231.034 1210 230.867C1210 230.701 1209.94 230.542 1209.82 230.424C1209.7 230.307 1209.54 230.241 1209.38 230.241L1016.32 229.965C1016.16 229.965 1016 230.031 1015.88 230.149C1015.76 230.266 1015.69 230.426 1015.69 230.592C1015.69 230.758 1015.76 230.917 1015.88 231.035C1016 231.152 1016.16 231.218 1016.32 231.218L1209.38 231.494ZM1027.47 222.684L1206.51 221.932C1206.67 221.932 1206.83 221.866 1206.95 221.749C1207.07 221.631 1207.13 221.472 1207.13 221.306C1207.13 221.139 1207.07 220.98 1206.95 220.862C1206.83 220.745 1206.67 220.679 1206.51 220.679L1027.48 221.431C1027.31 221.431 1027.15 221.497 1027.04 221.614C1026.92 221.732 1026.85 221.891 1026.85 222.057C1026.85 222.224 1026.92 222.383 1027.04 222.501C1027.15 222.618 1027.31 222.684 1027.48 222.684H1027.47ZM1045.69 213.956L1199.65 212.445C1199.81 212.445 1199.97 212.379 1200.09 212.262C1200.21 212.144 1200.28 211.985 1200.28 211.819C1200.28 211.653 1200.21 211.493 1200.09 211.376C1199.97 211.258 1199.81 211.192 1199.65 211.192L1045.7 212.702C1045.53 212.702 1045.37 212.768 1045.26 212.886C1045.14 213.003 1045.07 213.163 1045.07 213.329C1045.07 213.495 1045.14 213.654 1045.26 213.772C1045.37 213.89 1045.53 213.956 1045.7 213.956H1045.69ZM1085.58 204.08L1178.56 203.253C1178.73 203.253 1178.89 203.187 1179.01 203.07C1179.12 202.952 1179.19 202.793 1179.19 202.627C1179.19 202.46 1179.12 202.301 1179.01 202.184C1178.89 202.066 1178.73 202 1178.56 202L1085.58 202.827C1085.42 202.827 1085.26 202.893 1085.14 203.011C1085.02 203.128 1084.96 203.288 1084.96 203.454C1084.96 203.62 1085.02 203.779 1085.14 203.897C1085.26 204.014 1085.42 204.08 1085.58 204.08Z" fill="#EDDF99"/>
<path d="M1211.59 358.754C1212.5 338.788 1215.13 277.852 1215.13 244.125C1215.11 203.3 1192.06 195.043 1146 195.043C1146 195.043 1191.64 193.399 1220.8 210.448C1232.44 217.244 1245 226.868 1245 239.049L1242.06 344.526C1242.06 345.674 1241.75 346.8 1241.16 347.782C1240.57 348.765 1239.73 349.566 1238.72 350.1L1208.26 364C1209.22 363.491 1210.03 362.739 1210.61 361.82C1211.2 360.9 1211.53 359.843 1211.59 358.754Z" fill="#A5943D"/>
<path d="M1289 357L1236 339V345.701L1257.44 352.994" fill="#575756"/>
<path d="M1285 352H1287V345.132L1284 344.176V342H1282V345.562L1285 346.519V352Z" fill="#7C7C7B"/>
<path d="M1283 371.355L1289 373V351.645L1283 350V371.355Z" fill="#575756"/>
<path d="M1291.44 372.183C1291.35 368.651 1288.51 365.695 1285.1 365.58C1284.38 365.553 1283.67 365.657 1283 365.887L1284.22 365.426C1284.98 365.118 1285.8 364.974 1286.62 365.004C1288.33 365.116 1289.93 365.856 1291.11 367.078C1292.29 368.3 1292.96 369.914 1292.99 371.601C1293.05 372.815 1292.73 374.017 1292.07 375.046C1291.42 376.076 1290.46 376.883 1289.32 377.36L1287.79 377.942L1287.63 378C1288.8 377.545 1289.8 376.739 1290.49 375.696C1291.17 374.652 1291.5 373.424 1291.44 372.183Z" fill="#575756"/>
<path d="M1284.84 365.004C1281.53 364.88 1278.91 367.695 1279 371.282C1279.03 372.994 1279.67 374.633 1280.81 375.876C1281.95 377.12 1283.51 377.876 1285.16 377.996C1288.47 378.113 1291.09 375.299 1291 371.711C1290.91 368.124 1288.15 365.121 1284.84 365.004Z" fill="#7C7C7B"/>
<path d="M1285.41 368.001C1284.95 367.991 1284.49 368.074 1284.06 368.242C1283.64 368.41 1283.25 368.661 1282.93 368.979C1282.61 369.296 1282.36 369.674 1282.2 370.087C1282.04 370.5 1281.98 370.94 1282.01 371.379C1282.02 372.301 1282.39 373.185 1283.06 373.855C1283.72 374.526 1284.63 374.934 1285.59 374.999C1286.06 375.009 1286.52 374.928 1286.94 374.76C1287.37 374.592 1287.76 374.341 1288.08 374.023C1288.4 373.705 1288.64 373.327 1288.8 372.914C1288.96 372.5 1289.02 372.06 1288.99 371.621C1288.98 370.7 1288.61 369.817 1287.94 369.146C1287.28 368.476 1286.38 368.067 1285.41 368.001Z" fill="#EDEDED"/>
<path d="M1285.95 369C1285.68 368.995 1285.42 369.042 1285.17 369.139C1284.93 369.236 1284.71 369.38 1284.53 369.562C1284.34 369.744 1284.2 369.961 1284.11 370.198C1284.02 370.435 1283.99 370.687 1284 370.939C1284.01 371.465 1284.23 371.97 1284.61 372.351C1284.99 372.733 1285.5 372.964 1286.05 372.999C1286.32 373.006 1286.58 372.961 1286.82 372.865C1287.07 372.77 1287.29 372.627 1287.47 372.445C1287.65 372.264 1287.8 372.048 1287.89 371.812C1287.98 371.575 1288.01 371.323 1288 371.072C1287.99 370.544 1287.77 370.038 1287.39 369.654C1287.02 369.27 1286.5 369.037 1285.95 369Z" fill="#9D9D9C"/>
<path d="M1257.44 352.998L1216 348V354.191L1289 363V356.865L1257.44 352.998Z" fill="#7C7C7B"/>
<path d="M1112 357L1105.77 345.345L1095.69 338.545L1073.67 338L1064.13 342.888L1058 352.356L1112 357Z" fill="#575756"/>
<path d="M1103.05 366.709C1102.75 355.054 1093.65 345.289 1082.72 344.905C1080.44 344.82 1078.16 345.167 1076 345.925H1076.09L1080 344.401C1082.43 343.381 1085.05 342.908 1087.67 343.015C1098.6 343.399 1107.7 353.158 1107.99 364.813C1108.21 373.633 1103.35 380.966 1096.25 383.883L1091.32 385.805L1090.82 386H1090.74C1098.15 383.234 1103.27 375.725 1103.05 366.709Z" fill="#575756"/>
<path d="M1082.45 345.012C1071.41 344.629 1062.68 353.709 1063.01 365.301C1063.33 376.894 1072.5 386.606 1083.55 386.988C1094.6 387.371 1103.31 378.291 1102.99 366.699C1102.67 355.106 1093.51 345.4 1082.45 345.012Z" fill="#7C7C7B"/>
<path d="M1082.19 354.007C1075.85 353.784 1070.84 358.953 1071 365.598C1071.17 372.244 1076.45 377.771 1082.81 377.993C1089.17 378.216 1094.15 373.017 1094 366.396C1093.84 359.775 1088.52 354.223 1082.19 354.007Z" fill="#EDEDED"/>
<path d="M1082.82 359.004C1078.95 358.868 1075.9 362.107 1076 366.237C1076.1 370.368 1079.32 373.833 1083.19 373.994C1087.05 374.156 1090.1 370.859 1090 366.735C1089.9 362.611 1086.68 359.14 1082.82 359.004Z" fill="#9D9D9C"/>
<path d="M1057 354L1065.7 352.785L1074 342L1064.81 343.227L1057 354Z" fill="#7F722F"/>
<path d="M1064.17 342.397L1062 345.427L1073.43 341.145L1085.03 341.536L1095.61 347.323L1102.26 358L1112 356.03L1105.77 344.77L1095.71 338.202L1079.5 337L1073.71 337.675L1064.17 342.397Z" fill="#A5943D"/>
<path d="M1058 311L1050.22 298H1048L1056.02 310.856L1058 311Z" fill="#7C7C7B"/>
<path d="M1124 314L1118.04 300H1116L1122.18 313.851L1124 314Z" fill="#7C7C7B"/>
<path d="M1118 300L1124 314V300H1118Z" fill="#9D9D9C"/>
<path d="M1194 317L1188.04 303H1186L1192.18 316.851L1194 317Z" fill="#7C7C7B"/>
<path d="M1188 303L1194 317V303H1188Z" fill="#9D9D9C"/>
<path d="M1051 298L1058 311V298H1051Z" fill="#9D9D9C"/>
<path d="M1195 301.673L1203 299V304.061L1195 308V301.673Z" fill="#9D9D9C"/>
<path d="M1195 308V301.727L1044 296V301.017L1195 308Z" fill="#BDBCBC"/>
<path d="M1203 299.277L1053.43 293L1044 296.116L1194.73 302L1203 299.277Z" fill="#9D9D9C"/>
<path d="M1128.23 296.099V283.918L1128 283.211L1128.23 282.392L1129.24 280.515L1130.02 279.833L1130.79 278H1131.22L1132 279.877L1132.78 280.609L1133.77 282.573L1134 283.412L1133.77 284.1V296.174C1133.77 296.324 1133.71 296.47 1133.61 296.585C1133.51 296.699 1133.36 296.776 1133.2 296.8C1131.71 297.095 1130.16 297.063 1128.68 296.706C1128.55 296.662 1128.43 296.58 1128.35 296.471C1128.27 296.362 1128.23 296.232 1128.23 296.099Z" fill="#E45F41"/>
<path d="M1133.23 297.123V284.924L1133 284.223L1133.23 283.402L1134.23 281.524L1135.02 280.841L1135.78 279H1136.21L1136.98 280.879L1137.77 281.611L1138.77 283.559L1139 284.392L1138.77 285.081V297.173C1138.77 297.324 1138.71 297.469 1138.61 297.584C1138.51 297.699 1138.37 297.776 1138.21 297.8C1136.72 298.095 1135.17 298.063 1133.7 297.706C1133.57 297.667 1133.45 297.589 1133.37 297.485C1133.28 297.38 1133.24 297.254 1133.23 297.123Z" fill="#CCB64B"/>
<path d="M1118.72 237.251L1060.28 237C1058.61 237 1057.02 237.662 1055.84 238.84C1054.66 240.018 1054 241.616 1054 243.282V282.307C1054 283.929 1054.62 285.489 1055.75 286.66C1056.87 287.831 1058.4 288.522 1060.02 288.589L1118.46 290.995C1119.31 291.029 1120.15 290.893 1120.95 290.593C1121.74 290.292 1122.46 289.835 1123.07 289.248C1123.68 288.661 1124.17 287.957 1124.5 287.178C1124.83 286.398 1125 285.56 1125 284.713V243.533C1125 241.867 1124.34 240.269 1123.16 239.091C1121.98 237.913 1120.39 237.251 1118.72 237.251Z" fill="#72C8DA"/>
<path d="M1118.78 291.981C1120.7 291.974 1122.53 291.209 1123.88 289.852C1125.24 288.495 1126 286.657 1126 284.74V243.493C1126 241.581 1125.24 239.749 1123.89 238.394C1122.55 237.038 1120.72 236.268 1118.81 236.252L1060.26 236H1060.23C1058.31 236.002 1056.48 236.765 1055.12 238.123C1053.76 239.48 1053 241.321 1053 243.241V282.354C1053 284.221 1053.71 286.018 1055 287.367C1056.29 288.716 1058.05 289.512 1059.92 289.588L1118.47 292L1118.78 291.981ZM1118.78 238.141C1120.19 238.151 1121.54 238.719 1122.54 239.721C1123.54 240.723 1124.1 242.079 1124.1 243.493V284.74C1124.1 285.462 1123.96 286.176 1123.67 286.84C1123.39 287.503 1122.98 288.103 1122.46 288.603C1121.94 289.102 1121.32 289.491 1120.65 289.746C1119.97 290.001 1119.26 290.116 1118.54 290.086L1059.99 287.674C1058.61 287.621 1057.3 287.033 1056.35 286.034C1055.39 285.036 1054.86 283.705 1054.86 282.322V243.241C1054.86 241.821 1055.42 240.46 1056.43 239.456C1057.43 238.453 1058.79 237.889 1060.21 237.889L1118.78 238.141Z" fill="#575756"/>
<path d="M1055 243.307V282.488C1055 284.117 1055.62 285.683 1056.74 286.859C1057.85 288.035 1059.38 288.729 1060.99 288.795L1090 290V237.126L1061.29 237C1060.46 236.994 1059.65 237.153 1058.88 237.468C1058.12 237.782 1057.43 238.246 1056.84 238.832C1056.26 239.418 1055.8 240.115 1055.48 240.883C1055.16 241.652 1055 242.475 1055 243.307Z" fill="#36B7BA"/>
<path d="M1090 291V236.133L1060.23 236H1060.2C1059.26 235.999 1058.32 236.187 1057.45 236.551C1056.57 236.916 1055.78 237.452 1055.11 238.127C1054.44 238.801 1053.91 239.603 1053.55 240.485C1053.18 241.367 1053 242.312 1053 243.267V282.52C1053 284.395 1053.71 286.198 1054.99 287.553C1056.28 288.908 1058.03 289.708 1059.89 289.787L1090 291ZM1088.12 238.016V289.028L1059.98 287.859C1058.61 287.805 1057.31 287.215 1056.36 286.214C1055.4 285.212 1054.87 283.876 1054.88 282.488V243.267C1054.88 242.559 1055.02 241.859 1055.29 241.205C1055.56 240.552 1055.95 239.959 1056.45 239.46C1056.94 238.961 1057.53 238.566 1058.18 238.297C1058.83 238.029 1059.53 237.892 1060.23 237.896L1088.12 238.016Z" fill="#575756"/>
<path d="M1066.51 259.008L1064.49 257.361L1063 253.577L1065.08 250.003L1069.38 248.712L1073.86 249.622L1077.42 248L1080.53 249.622L1081.36 251.638L1084.14 252.432L1085.25 254.391L1084.68 257.081L1086 259.86L1085.51 263.599L1082.98 264.28L1082.7 267.11L1080.71 268L1078.22 267.765L1075.86 265.889L1074.82 258.378L1066.51 259.008Z" fill="#575756"/>
<path d="M1073.12 253L1073.85 255.591L1075.23 256.522L1076.6 255.695L1078 256.911L1077.43 259.378L1076.38 259.84L1076.4 264.115L1076.95 267.15L1074.13 269L1070.51 267.452L1070.69 265.287L1073.72 263.578L1071.02 264.497L1068.18 264.67L1066.64 262.332L1066 258.971L1066.32 255.208L1067.18 254.443L1069.94 254.906L1073.12 253Z" fill="#E5856E"/>
<path d="M1076.77 268L1081.08 268.548L1085.1 271.048L1089 285.877L1088.97 289L1065.8 288.062L1065 271.677L1066.92 270.16L1070.43 268.309L1074 269.889L1076.77 268Z" fill="#167272"/>
<path d="M1064.57 272L1061.4 285.438L1053 289.625L1055.77 292L1066 287.595L1064.57 272Z" fill="#0D4C4C"/>
<path d="M1085.05 270.445L1081 268L1083.75 283.917L1082.77 287.76L1088.97 288L1089 284.946L1085.05 270.445Z" fill="#0D4C4C"/>
<path d="M1053.78 289L1049.93 290.358L1049 293.45L1050.87 295L1051.39 294.436L1052.95 292.317L1056 290.748L1053.78 289Z" fill="#E5856E"/>
<path d="M1171 218V206L1162.17 207.731L1157 218H1171Z" fill="#7C7C7B"/>
<path d="M1150.87 227.755L1164 276L1161.11 276.789L1147.97 228.544L1150.87 227.755Z" fill="#9D9D9C"/>
<path d="M1032.51 227.49L1053 272L1050.28 273.257L1029.79 228.746L1032.51 227.49Z" fill="#9D9D9C"/>
<path d="M1149 224H1156.76L1170 206L1162.57 206.107L1149 224Z" fill="#E45F41"/>
<path d="M1141 225H1148.63L1162 207L1154.69 207.101L1141 225Z" fill="#EDE7CA"/>
<path d="M1134 225H1141.52L1155 207L1147.8 207.108L1134 225Z" fill="#E45F41"/>
<path d="M1126 225H1133.76L1148 207L1140.57 207.102L1140.56 207.109L1126 225Z" fill="#EDE7CA"/>
<path d="M1118 225H1125.65L1140 207L1132.69 207.103L1118 225Z" fill="#E45F41"/>
<path d="M1111 224H1118.53L1133 207L1125.79 207.104L1111 224Z" fill="#EDE7CA"/>
<path d="M1103 224H1110.76L1126 207L1118.57 207.098L1103 224Z" fill="#E45F41"/>
<path d="M1096 224H1103.65L1119 207L1111.67 207.105L1096 224Z" fill="#EDE7CA"/>
<path d="M1088 224H1095.55L1111 207L1103.78 207.106L1088 224Z" fill="#E45F41"/>
<path d="M1080 224H1087.77L1104 207L1096.57 207.1L1080 224Z" fill="#EDE7CA"/>
<path d="M1073 224H1080.65L1097 207L1089.67 207.107L1073 224Z" fill="#E45F41"/>
<path d="M1066 225H1073.56L1090 208L1082.77 208.108L1066 225Z" fill="#EDE7CA"/>
<path d="M1058 225H1065.46L1082 208L1074.86 208.102L1058 225Z" fill="#E45F41"/>
<path d="M1050 225H1057.67L1075 208L1067.66 208.109L1050 225Z" fill="#EDE7CA"/>
<path d="M1043 225H1050.57L1068 208L1060.76 208.103L1043 225Z" fill="#E45F41"/>
<path d="M1035 224H1042.46L1060 208L1052.85 208.104L1035 224Z" fill="#EDE7CA"/>
<path d="M1027 224H1034.67L1053 208L1045.66 208.105L1027 224Z" fill="#E45F41"/>
<path d="M1035 224V230.969L1043 231V224H1035Z" fill="#EDDF99"/>
<path d="M1027 224V230.969L1035 231V224H1027Z" fill="#E74011"/>
<path d="M1042 224V230.975L1050 231V224H1042Z" fill="#E74011"/>
<path d="M1057 224V230.969L1065 231V224H1057Z" fill="#E74011"/>
<path d="M1065 224V230.975L1073 231V224H1065Z" fill="#EDDF99"/>
<path d="M1073 224V230.969L1081 231V224H1073Z" fill="#E74011"/>
<path d="M1080 224V230.97L1088 231V224H1080Z" fill="#EDDF99"/>
<path d="M1088 224V230.976L1096 231V224H1088Z" fill="#E74011"/>
<path d="M1095 224V230.97L1103 231V224H1095Z" fill="#EDDF99"/>
<path d="M1103 224V230.97L1111 231V224H1103Z" fill="#E74011"/>
<path d="M1111 224V230.976L1119 231V224H1111Z" fill="#EDDF99"/>
<path d="M1118 224V230.97L1126 231V224H1118Z" fill="#E74011"/>
<path d="M1126 224V230.97L1134 231V224H1126Z" fill="#EDDF99"/>
<path d="M1141 224V230.976L1149 231V224H1141Z" fill="#EDDF99"/>
<path d="M1133 224V230.97L1141 231V224H1133Z" fill="#E74011"/>
<path d="M1149 224V230.971L1157 231V224H1149Z" fill="#E74011"/>
<path d="M1050 224V230.969L1058 231V224H1050Z" fill="#EDDF99"/>
<path d="M1170.87 217.325L1168.41 206.857L1044.03 208.534L1045.52 207.447L1170.87 205.782V217.325Z" fill="#9D9D9C"/>
<path d="M1226.01 309.585L1239.11 387.128L1191.61 379.235L1178.93 305.814L1226.01 309.585Z" fill="#2E2D2C"/>
<path d="M1241.02 389.038L1227.36 308.108L1177.04 304.08L1190.25 380.599L1241.02 389.038ZM1224.67 311.055L1237.22 385.205L1192.97 377.859L1180.82 307.543L1224.67 311.055Z" fill="#9D9D9C"/>
<path d="M1214.49 410.999L1226.22 320.236L1239.62 399.6L1242.72 399.079L1227.56 309.321L1224.45 309.384L1211.38 410.597L1214.49 410.999Z" fill="#9D9D9C"/>
<path d="M1165.51 400.989L1179 315.448L1191.91 390.181L1195.01 389.647L1180.47 305.544L1177.38 305.57L1162.42 400.499L1165.51 400.989Z" fill="#9D9D9C"/>
<path d="M1214.62 397.711L1165.98 387.129L1178.93 305.816L1226.01 309.586L1214.62 397.711Z" fill="#575756"/>
<path d="M1215.96 399.609L1227.78 308.154L1177.61 304.132L1164.2 388.335L1215.96 399.609ZM1224.25 311.006L1213.27 395.813L1167.74 385.91L1180.25 307.481L1224.25 311.006Z" fill="#9D9D9C"/>
<path d="M1199.53 317.515L1217.77 319.299L1217.65 320.55L1199.41 318.765L1199.53 317.515Z" fill="#EDEDED"/>
<path d="M1188.35 326.978L1216.38 330.205L1216.24 331.454L1188.21 328.227L1188.35 326.978Z" fill="#EDEDED"/>
<path d="M1181 336.595L1214.98 341.102L1214.81 342.348L1180.84 337.841L1181 336.595Z" fill="#EDEDED"/>
<path d="M1191.16 348.639L1213.57 351.996L1213.39 353.239L1190.97 349.881L1191.16 348.639Z" fill="#EDEDED"/>
<path d="M1177.76 357.162L1212.19 362.911L1211.98 364.151L1177.55 358.401L1177.76 357.162Z" fill="#EDEDED"/>
<path d="M1176.12 367.433L1210.78 373.808L1210.55 375.044L1175.89 368.669L1176.12 367.433Z" fill="#EDEDED"/>
<path d="M1174.49 377.707L1184.61 379.74L1184.36 380.973L1174.25 378.94L1174.49 377.707Z" fill="#EDEDED"/>
<path d="M1018.81 376.926L1031.18 378.302L1032.32 379.905L1014.24 386.094L1013.78 381.048L1018.81 376.926Z" fill="#3C4488"/>
<path d="M1001.87 327.196L1012.18 346.217L1020.87 374.865L1022.02 376.926L1013.32 382.883L1013.55 379.446L1005.99 355.379L996.609 341.404L994.544 337.049L1001.87 327.196Z" fill="#2E2D2C"/>
<path d="M1001.87 327.196L992.028 354.235V359.048L989.969 361.11L986.076 376.693L986.761 378.302L985.844 380.589L976.001 386.094V381.507L977.375 379.213L985.16 331.777L983.101 324.211L1001.87 327.196Z" fill="#3C3C3B"/>
<path d="M984.588 379.389L986.133 381.966L993.861 385.579L994.545 387.47H976.515L977.375 383.172L984.588 379.389Z" fill="#3C4488"/>
<path d="M996.434 282.101L999.353 279.349L1001.59 280.379L1002.79 276.257H1004.16L1003.3 273.85L1002.79 268.346L1000.3 265.342L993.772 264.393L990.339 268.867L991.456 275.139L992.14 277.457L991.544 279.179L996.434 282.101Z" fill="#C7884F"/>
<path d="M991.6 274.749L985.617 277.803L984.474 277.501L985.259 276.402L990.325 273.48L991.6 274.749Z" fill="#3C3C3B"/>
<path d="M1010.14 296.994L1010.8 307.111H1016.38L1017.03 296.994H1010.14Z" fill="#1EA7AC"/>
<path d="M1013.82 298.18L1014.16 301.367L1013.31 301.457L1012.97 298.269L1013.82 298.18Z" fill="#2E2D2C"/>
<path d="M1011.77 299.512L1013.09 302.12L1012.33 302.506L1011.01 299.898L1011.77 299.512Z" fill="#2E2D2C"/>
<path d="M1015.39 299.613L1016.17 299.963L1015.22 302.084L1014.44 301.735L1015.39 299.613Z" fill="#2E2D2C"/>
<path d="M1007.98 308.732L1012.98 307.111H1010.8L1010.52 302.48H1012.37L1012.96 301.015L1009.74 301.405L1007 305.998L1007.98 308.732Z" fill="#C7884F"/>
<path d="M1001.04 304.459L1007.28 304.654L1008.65 309.737L1000.16 311.591" fill="#8C2B01"/>
<path d="M1017.2 300.864L1013.49 301.983L1013.32 303.089L1017.12 302.234L1017.69 301.474L1017.2 300.864Z" fill="#C7884F"/>
<path d="M1017.53 303.717L1017.62 302.75L1017.12 302.454L1013.08 303.34L1012.94 304.358L1017.53 303.717Z" fill="#C7884F"/>
<path d="M1017.8 304.629L1017.41 303.862L1013.05 304.503L1013.23 305.358L1017.26 305.05L1017.8 304.629Z" fill="#C7884F"/>
<path d="M1017.55 305.904L1017.26 305.188L1013.76 305.458L1013.73 306.212L1017.04 306.319L1017.55 305.904Z" fill="#C7884F"/>
<path d="M1003.65 268.006L990.626 275.283L987.845 268.691L993.458 263.595L999.955 263.363L1002.18 265.681L1003.65 268.006Z" fill="#1EA7AC"/>
<path d="M1002.62 267.315L1001.82 267.711L1000.56 264.619L1001.94 266.222L1002.62 267.315Z" fill="#3C3C3B"/>
<path d="M997.808 284.678L1000.56 294.989L1003.65 327.477L978.749 324.555L985.786 287.254L990.94 280.555L991.11 278.149L996.433 282.101L999.867 282.962L997.808 284.678Z" fill="#E74011"/>
<path d="M984.412 304.792L985.963 313.212L994.061 323.021L997.464 320.948L998.186 318.704L995.405 313.552L993.515 307.708H991.111L993.86 306.162L995.919 290.006L993.176 286.569L988.537 288.636L984.412 304.792Z" fill="#8C2B01"/>
<path d="M993.559 323.688L997.728 321.149L998.826 317.731L998.23 317.536L997.2 320.734L993.233 323.154L993.559 323.688Z" fill="#8C2B01"/>
</g>
</g>
<path fill-rule="evenodd" clip-rule="evenodd" d="M192.733 93L173 79.1466L228.267 0L248 13.8534L192.733 93Z" fill="#1EA7AC"/>
<defs>
<clipPath id="clip0_690_1477">
<rect width="719" height="317" fill="white" transform="translate(722 83)"/>
</clipPath>
<clipPath id="clip1_690_1477">
<rect width="124" height="72" fill="white" transform="translate(1067 133)"/>
</clipPath>
<clipPath id="clip2_690_1477">
<rect width="317" height="216" fill="white" transform="matrix(-1 0 0 1 1293 195)"/>
</clipPath>
<clipPath id="clip3_690_1477">
<rect width="317" height="216" fill="white" transform="matrix(-1 0 0 1 1293 195)"/>
</clipPath>
</defs>
</svg>
