<svg xmlns="http://www.w3.org/2000/svg" viewBox="0 0 184.7 160.74"><defs><style>.cls-1{fill:#167272;}.cls-2{fill:#188c8c;}.cls-3{fill:#fce6f1;}.cls-4{fill:#a5943d;}.cls-5{fill:#e74011;}.cls-6{fill:#111425;}.cls-7{fill:#4f5ea8;}.cls-8{fill:#333c72;}.cls-9{fill:#62c2ce;}.cls-10{fill:#2e2d2c;}.cls-11{fill:#9a2915;}</style></defs><g id="Calque_2" data-name="Calque 2"><g id="Son"><polygon class="cls-1" points="43.53 94.88 64.93 117.21 70.48 148.73 77.39 147.72 77.39 117.77 75.35 108.47 51.72 75.53 43.53 94.88"/><polygon class="cls-2" points="123.47 27.12 127.84 24.8 131.56 24.8 134.54 27.12 136.59 30.93 136.59 32.42 139.17 34 143.1 37.54 143.93 41.54 143.93 45.17 141.89 52.7 123.47 63.34 106.07 69.26 97.79 67.4 97.79 59.87 100.49 57.45 99.28 47.03 104.68 41.73 109.42 40.33 109.79 33.26 111 26.84 115.75 24.05 120.35 24.05 123.47 27.12"/><polygon class="cls-3" points="119.44 52.09 114.6 52.09 103.63 62.14 110.7 70.51 116.47 65.67 113.3 74.98 147.53 81.12 142.88 64.93 149.95 67.91 152.74 55.26 141.4 52.09 137.3 52.09 132.65 55.26 124.65 55.26 119.44 52.09"/><polygon class="cls-4" points="105.07 63.85 96 73.67 80.19 75.35 75.72 73.67 76.65 76.37 69.77 78.51 78.05 81.77 81.77 80 98.88 79.26 101.39 77.95 109.57 69.18 105.07 63.85"/><polygon class="cls-4" points="151.66 57.96 160.51 58.7 174.09 47.7 175.91 42.65 177.79 41.4 176.7 44.91 180 41.73 184.7 40.84 184 45.58 179.05 52.14 175.95 52.91 164.42 63.55 161.05 64.14 150.3 64.14 151.66 57.96"/><polygon class="cls-4" points="133.3 50.6 136.72 52.49 132.65 55.26 124.65 55.26 120.41 52.68 124.37 51.44 125.02 46.79 121.21 47.53 117.21 41.4 117.9 36 120.56 31.63 123.44 34.6 126.97 35.07 129.67 34.14 131.26 37.21 133.02 35.72 134.51 36.47 135.07 39.81 133.86 40.84 132.74 40.37 133.3 50.6"/><polygon class="cls-4" points="120.86 76.33 117.9 88.08 140.47 90.33 140.47 79.85 120.86 76.33"/><polygon class="cls-5" points="117.35 85.98 141.93 89.33 142.42 100.65 129.64 120.47 132.93 148.37 125.67 150.88 115.35 126.6 115.35 118.93 124.56 101.49 88 118.93 58.7 138.88 56.74 131.63 72.09 114.6 117.35 85.98"/><polygon class="cls-6" points="57.16 133.17 52.56 132.74 46.14 127.26 41.4 127.26 51.35 144.65 58.48 138.06 57.16 133.17"/><polygon class="cls-6" points="126.67 150.54 117.9 156.65 117.3 159.63 130.51 156.74 132.47 157.02 134.98 155.72 131.9 148.73 126.67 150.54"/><polygon class="cls-7" points="70.96 40.84 72.19 32.47 63.44 23.07 54.33 22.14 37.4 43.44 26.79 58.6 24.74 68.09 36.09 74.61 51.72 75.53 53.77 69.26 54.2 66.61 61.12 56.56 70.88 43.44 70.96 40.84"/><polygon class="cls-8" points="52.81 24.05 39.44 31.63 45.23 23.37 45.49 17.68 32.19 33.3 34.79 40.84 39.47 40.84 52.81 24.05"/><polygon class="cls-9" points="45.49 17.68 51.18 14.25 58.21 12.97 58.07 16.54 53.2 20.44 45.23 23.37 45.49 17.68"/><polygon class="cls-9" points="70.48 77.56 74.05 80.19 78.87 81.37 82.23 78.51 78.05 76.33 76.65 76.37 76.05 74.91 73.35 73.73 70.48 77.56"/><polygon class="cls-2" points="26.78 69.26 23.26 81.77 28.09 111.44 6.51 136.93 7.44 143.44 32.93 125.02 38.33 118.93 42.5 110.33 43.53 94.88 51.72 75.53 36.09 74.61 26.78 69.26"/><polygon class="cls-10" points="6.51 136.93 0 141.21 5.02 160.74 8.56 158.32 9.67 147.91 9.67 140.65 6.51 136.93"/><polygon class="cls-10" points="70.48 148.73 70.48 156.84 93.02 152.74 94.33 148.84 85.77 148.73 79.26 149.58 77.39 147.72 70.48 148.73"/><polygon class="cls-9" points="63.44 23.07 68.47 19.16 72.19 10.98 79.07 7.07 87.26 6.14 90.42 10.98 89.67 20.46 87.84 24.75 85.95 25.3 80 29.02 76.36 27.77 72.19 32.47 63.44 23.07"/><polygon class="cls-11" points="69.77 22.14 74.05 21.58 80 18.42 87.81 14.7 90.97 14.53 89.67 6.14 82.23 0 74.05 0 68.47 1.67 65.49 6.14 65.49 13.95 66.79 19.3 69.77 22.14"/><polygon class="cls-8" points="62.7 34.6 50.42 55.26 50.98 64.14 69.77 78.51 74.05 72.81 61.12 61.95 61.12 56.56 70.88 43.44 71.07 36.84 67.16 32.47 62.7 34.6"/></g></g></svg>