<?xml version="1.0" encoding="utf-8"?>
<!-- Generator: Adobe Illustrator 23.0.3, SVG Export Plug-In . SVG Version: 6.00 Build 0)  -->
<svg version="1.1" id="Calque_1" xmlns="http://www.w3.org/2000/svg" xmlns:xlink="http://www.w3.org/1999/xlink" x="0px" y="0px"
	 viewBox="0 0 1000 1000" style="enable-background:new 0 0 1000 1000;" xml:space="preserve">
<style type="text/css">
	.st0{fill:#282727;}
	.st1{fill:#E74011;}
	.st2{fill:#1EA7AC;}
	.st3{fill:#EFD857;}
	.st4{fill:#6CBE99;}
	.st5{fill:#EEBCD8;}
	.st6{fill:#3C4488;}
	.st7{fill:#221E1F;}
	.st8{fill:#EA564C;}
	.st9{fill:#4CBEEC;}
	.st10{fill:#F3DA5C;}
	.st11{fill:#068E53;}
	.st12{fill:#F0BCD4;}
	.st13{fill:#354795;}
</style>
<g>
	<g>
		<path class="st0" d="M103.79,441.3h119.2v35.2h-37.6v106.4h-44.4V476.5h-37.2V441.3z"/>
		<path class="st0" d="M296.65,439.9c37.4,0,62.8,22.4,68.6,55.8h-46.8c-4.2-9.4-12.6-14.8-22.6-14.8c-15,0-24.2,12.2-24.2,31
			c0,18.8,9.2,31,24.2,31c10,0,18.4-5.4,22.6-14.8h46.8c-5.8,33.4-31.2,55.8-68.6,55.8c-43.4,0-70-29.8-70-72
			S253.25,439.9,296.65,439.9z"/>
		<path class="st0" d="M466.91,527.7h-42.2v55.2h-44.4V441.3h44.4v51h42.2v-51h44.4v141.6h-44.4V527.7z"/>
		<path class="st0" d="M635.76,465.43l-49.24-8.68l-3.02,17.14l43.33,7.64l-5.8,32.89l-43.33-7.64l-3.47,19.7l49.24,8.68
			l-6.15,34.86l-92.96-16.39l24.59-139.45l92.96,16.39L635.76,465.43z"/>
		<path class="st0" d="M740.8,492.72l-49.81,4.36l1.52,17.33l43.83-3.83l2.91,33.27l-43.83,3.83l1.74,19.92l49.81-4.36l3.09,35.26
			l-94.04,8.23l-12.34-141.06l94.04-8.23L740.8,492.72z"/>
		<path class="st0" d="M896.21,441.3v141.6h-44.4l-47-71.2v71.2h-44.4V441.3h44.4l47,72.4v-72.4H896.21z"/>
	</g>
	<g>
		
			<rect x="658.19" y="406.96" transform="matrix(0.515 -0.8572 0.8572 0.515 -24.796 780.093)" class="st3" width="37.63" height="10"/>
		
			<rect x="670.12" y="427.36" transform="matrix(0.7862 -0.618 0.618 0.7862 -120.2514 517.125)" class="st3" width="34.27" height="10"/>
		
			<rect x="639.82" y="409.05" transform="matrix(0.0149 -0.9999 0.9999 0.0149 229.6855 1061.2385)" class="st3" width="27.25" height="10"/>
	</g>
</g>
</svg>
