<svg width="53" height="52" viewBox="0 0 53 52" fill="none" xmlns="http://www.w3.org/2000/svg">
<path d="M17.6571 1.46037C24.1459 -0.791579 31.2669 -0.408294 37.4729 2.52695C40.9486 4.197 44.0137 6.60364 46.4526 9.57752C48.8915 12.5514 50.6448 16.0203 51.5893 19.74C52.5338 23.4597 52.6465 27.3399 51.9194 31.1076C51.1923 34.8753 49.6431 38.4388 47.3808 41.5475C46.353 42.911 45.1974 44.1747 43.9296 45.3215C42.67 46.4455 41.3166 47.461 39.8839 48.3572C36.9323 50.076 33.6844 51.2335 30.3062 51.7702C28.6247 51.9751 26.9291 52.0409 25.2367 51.9672C23.5749 51.8927 21.9255 51.6452 20.3157 51.2288C18.6627 50.8432 17.0528 50.2935 15.5104 49.5879C9.21551 46.6065 4.36198 41.2732 2.00797 34.7506C-0.346037 28.228 -0.00962061 21.0452 2.94388 14.768C5.89429 8.5806 11.1811 3.79886 17.6571 1.46037" fill="#6CBE99"/>
</svg>
